<svg xmlns="http://www.w3.org/2000/svg" viewBox="0 0 24 24" fill="currentColor">
  <path d="M12 0C5.808 0 0.78 4.537 0.056 10.371L5.123 12.824C5.597 12.246 6.29 11.873 7.077 11.873C7.098 11.873 7.119 11.874 7.141 11.874L9.498 8.159C9.498 8.147 9.498 8.136 9.498 8.123C9.498 6.118 11.13 4.486 13.135 4.486C15.14 4.486 16.772 6.118 16.772 8.123C16.772 10.086 15.206 11.688 13.267 11.758L9.695 15.415C9.702 15.432 9.707 15.449 9.707 15.467C9.707 16.805 8.617 17.895 7.28 17.895C6.083 17.895 5.085 17.054 4.908 15.924L1.17 14.101C2.527 19.958 6.867 24 12 24C18.627 24 24 18.627 24 12C24 5.373 18.627 0 12 0ZM7.5 14.844L6.447 14.376C6.646 14.691 6.775 15.063 6.775 15.467C6.775 16.39 6.024 17.142 5.101 17.142C4.217 17.142 3.489 16.468 3.432 15.605L5.83 16.698C6.301 16.941 6.87 16.751 7.113 16.28C7.357 15.809 7.167 15.239 6.696 14.996L6.689 14.992L7.5 14.844ZM20.817 8.123C20.817 5.139 18.396 2.718 15.412 2.718C12.427 2.718 10.006 5.139 10.006 8.123C10.006 11.107 12.427 13.529 15.412 13.529C18.396 13.529 20.817 11.107 20.817 8.123ZM13.134 11.066C11.56 11.066 10.281 9.787 10.281 8.213C10.281 6.639 11.56 5.36 13.134 5.36C14.709 5.36 15.987 6.639 15.987 8.213C15.987 9.787 14.709 11.066 13.134 11.066Z"/>
</svg>